<svg id="Layer_1" data-name="Layer 1" xmlns="http://www.w3.org/2000/svg" viewBox="0 0 87.3 23.56">
	<defs><style>.cls-1{fill:#010101;}</style></defs>
	<path class="cls-1" d="M2.68,8a.89.89,0,0,0-1-1H0V.54H6.93c2.1,0,3.22,1,3.22,2.59v.31A4.16,4.16,0,0,1,10.1,4h.09a8,8,0,0,1,6.75-4,6.67,6.67,0,0,1,6.44,3.89h.09A8.92,8.92,0,0,1,30.85,0c4.2,0,7.46,2.28,7.46,8.63V16.1a.9.9,0,0,0,1,1H41v6.48H33.84c-2.28,0-3.26-1-3.26-3.26V9.93c0-1.7-.31-2.91-1.79-2.91-2.32,0-3.66,1.88-4.16,4.43A12.35,12.35,0,0,0,24.37,14v9.52H16.63V9.93c0-1.7-.31-2.91-1.79-2.91-2.28,0-3.57,1.79-4.11,4.25A13.34,13.34,0,0,0,10.42,14v9.52H2.68Z"/>
	<path class="cls-1" d="M43.49,7.73a.84.84,0,0,0-1-.71h-.67V.54h5.72c1.7,0,2.69.67,3,2.19l2.32,11.4a12.86,12.86,0,0,1,.27,2.41h.09a16.64,16.64,0,0,1,.4-2.41L56.82.63h6.61l3.18,13.5A13.74,13.74,0,0,1,67,16.54h.08a12.86,12.86,0,0,1,.27-2.41l2.33-11.4C70,1.21,70.9.54,72.6.54h5.72V7h-.67c-.54,0-.76.13-1,.71L72,23.56H63.21L60.62,12.92a19.77,19.77,0,0,1-.45-2.46h-.09a19.77,19.77,0,0,1-.45,2.46L57,23.56h-8.9Z"/>
	<path class="cls-1" d="M80.24,16.23H87.3v7.33H80.24Z"/>
</svg>