<?xml version="1.0" encoding="utf-8"?>
<!-- Generator: Adobe Illustrator 25.2.2, SVG Export Plug-In . SVG Version: 6.00 Build 0)  -->
<svg version="1.1" id="Layer_1" xmlns="http://www.w3.org/2000/svg" xmlns:xlink="http://www.w3.org/1999/xlink" x="0px" y="0px"
	 viewBox="0 0 161.7 67.6" style="enable-background:new 0 0 161.7 67.6;" xml:space="preserve">
<style type="text/css">
	.st0{fill:#F4F4F4;}
</style>
<g>
	<path class="st0" d="M33.1,44.9h-3.7V26.2L25,44.9h-2.2l-4.4-18.7v18.7h-3.7V19.5h5.7l3.5,15.9l3.5-15.9h5.7V44.9z"/>
	<path class="st0" d="M47.7,23.2h-7.6v6.7h5.6v3.6h-5.6v7.8h7.6v3.6H36.2V19.5h11.5V23.2z"/>
	<path class="st0" d="M63.2,32.3v12.6h-2l-0.7-2.2c-1.3,1.8-2.7,2.5-4.7,2.5c-2.3,0-4.3-1.1-5.2-3c-0.8-1.6-1.1-3.3-1.1-6.8v-7
		c0-4,0.3-5.5,1.5-7c1.1-1.5,3-2.4,5.4-2.4c2.8,0,4.8,1.2,6,3.4c0.6,1.3,0.9,2.8,0.9,5.2h-3.9c0-3.5-0.9-4.9-3-4.9
		c-1,0-1.9,0.5-2.3,1.3c-0.5,0.8-0.6,1.6-0.6,3.6v7.8c0,2.1,0.1,3.2,0.4,4.1c0.4,1.2,1.4,1.9,2.7,1.9c2.1,0,2.9-1.5,2.9-5v-1H56
		v-3.2L63.2,32.3L63.2,32.3z"/>
	<path class="st0" d="M84.5,44.9l-3.3-17.2l-3.1,17.2h-3.6l-4.7-25.3h3.8l2.9,16.3l3-16.3h3.4l3.3,16.3l2.5-16.3h3.7l-4.3,25.3H84.5
		z"/>
	<path class="st0" d="M98.6,44.9h-3.9V19.5h3.9V44.9z"/>
	<path class="st0" d="M105.6,41.3h7.8v3.6h-11.7V19.5h3.9C105.6,19.5,105.6,41.3,105.6,41.3z"/>
	<path class="st0" d="M119,41.3h7.8v3.6h-11.7V19.5h3.9C119,19.5,119,41.3,119,41.3z"/>
	<path class="st0" d="M132.4,44.9h-3.9V19.5h3.9V44.9z"/>
	<path class="st0" d="M145,26.6c-0.6-2.5-1.7-3.8-3.3-3.8c-1.4,0-2.5,1.1-2.5,2.6c0,0.9,0.4,1.8,1.1,2.5c0.6,0.7,0.6,0.7,3.3,2.8
		c2.1,1.7,2.9,2.4,3.8,3.4c1,1.3,1.6,2.9,1.6,4.6c0,3.8-2.8,6.5-7,6.5c-4.3,0-6.9-2.3-7.7-7.1l3.8-1.1c0.5,3,1.8,4.6,3.9,4.6
		c1.7,0,2.9-1.2,2.9-2.9c0-1.6-0.8-2.6-3.8-4.9c-3.5-2.8-3.7-2.9-4.6-4.1c-0.9-1.2-1.4-2.7-1.4-4.2c0-3.6,2.7-6.2,6.6-6.2
		c3.6,0,6,2.2,7.1,6.3L145,26.6z"/>
</g>
</svg>
