<?xml version="1.0" encoding="utf-8"?>
<!-- Generator: Adobe Illustrator 25.2.1, SVG Export Plug-In . SVG Version: 6.00 Build 0)  -->
<svg version="1.1" id="Layer_1" xmlns="http://www.w3.org/2000/svg" xmlns:xlink="http://www.w3.org/1999/xlink" x="0px" y="0px"
	 viewBox="0 0 1000 1000" style="enable-background:new 0 0 1000 1000;" xml:space="preserve">
<style type="text/css">
	.st0{opacity:0.1;}
</style>
<path class="st0" d="M602.1,132.1h266.7c37.9,0,68.7,30.8,68.7,68.7v242.5c0,114.6-23.8,205-71.5,271.2
	c-38.7,53.7-99.8,102.4-183.3,146c-33.6,17.5-76.3,2.4-94-31.1l-23.2-43.9c-17.7-33.5-4-73.3,28.8-92.4
	c39.2-22.8,68.1-45.5,86.8-68.2c13.8-16.8,24.5-35.2,32.1-55.1c12.6-33.1-17.4-62.4-55.3-62.4h-55.8c-37.9,0-68.7-30.8-68.7-68.7
	v-238C533.4,162.8,564.2,132,602.1,132.1z M131.2,132.1h266.7c37.9,0,68.7,30.8,68.7,68.7v242.5c0,114.6-23.8,205-71.5,271.2
	c-38.7,53.7-99.8,102.4-183.3,146c-33.6,17.5-76.3,2.4-94-31.1l-23.2-43.9c-17.7-33.5-4-73.3,28.8-92.4
	c39.2-22.8,68.1-45.5,86.8-68.2c13.8-16.8,24.5-35.2,32.1-55.1c12.6-33.1-17.4-62.4-55.3-62.4h-55.8c-37.9,0-68.7-30.8-68.7-68.7
	v-238C62.5,162.8,93.3,132,131.2,132.1z"/>
</svg>
