<?xml version="1.0" encoding="utf-8"?>
<!-- Generator: Adobe Illustrator 25.2.1, SVG Export Plug-In . SVG Version: 6.00 Build 0)  -->
<svg version="1.1" id="Layer_1" xmlns="http://www.w3.org/2000/svg" xmlns:xlink="http://www.w3.org/1999/xlink" x="0px" y="0px"
	 viewBox="0 0 1000 1000" style="enable-background:new 0 0 1000 1000;" xml:space="preserve">
<style type="text/css">
	.st0{opacity:0.1;}
</style>
<path class="st0" d="M397.9,867.8H131.2c-37.9,0-68.7-30.8-68.7-68.7V556.6c0-114.6,23.8-205,71.5-271.2
	c38.7-53.7,99.8-102.4,183.3-146c33.6-17.5,76.3-2.4,94,31.1l23.2,43.9c17.7,33.5,4,73.3-28.8,92.4c-39.2,22.8-68.1,45.5-86.8,68.2
	c-13.8,16.8-24.5,35.2-32.1,55.1c-12.6,33.1,17.4,62.4,55.3,62.4h55.8c37.9,0,68.7,30.8,68.7,68.7v237.9
	C466.6,837,435.8,867.8,397.9,867.8L397.9,867.8z M868.8,867.8H602.1c-37.9,0-68.7-30.8-68.7-68.7V556.6
	c0-114.6,23.8-205,71.5-271.2c38.7-53.7,99.8-102.4,183.3-146c33.6-17.5,76.3-2.4,94,31.1l23.2,43.9c17.7,33.5,4,73.3-28.8,92.4
	c-39.2,22.8-68.1,45.5-86.8,68.2c-13.8,16.8-24.5,35.2-32.1,55.1c-12.6,33.1,17.4,62.4,55.3,62.4h55.8c37.9,0,68.7,30.8,68.7,68.7
	v237.9C937.5,837,906.7,867.8,868.8,867.8z"/>
</svg>
